<?xml version="1.0" encoding="utf-8"?>
<!-- Generator: Adobe Illustrator 23.0.2, SVG Export Plug-In . SVG Version: 6.00 Build 0)  -->
<svg version="1.1" id="Capa_1" xmlns="http://www.w3.org/2000/svg" xmlns:xlink="http://www.w3.org/1999/xlink" x="0px" y="0px"
	 viewBox="0 0 15 15" style="enable-background:new 0 0 15 15;" xml:space="preserve">
<style type="text/css">
	.st0{fill:#FFFFFF;}
	.st1{fill:#007AB5;}
</style>
<g>
	<circle class="st0" cx="7.5" cy="7.5" r="7.5"/>
	<path class="st1" d="M4.3,5.9h1.5v4.9H4.3V5.9z M5.1,3.5c0.5,0,0.9,0.4,0.9,0.9c0,0.5-0.4,0.9-0.9,0.9c-0.5,0-0.9-0.4-0.9-0.9
		C4.2,3.9,4.6,3.5,5.1,3.5"/>
	<path class="st1" d="M6.8,5.9h1.5v0.7h0c0.2-0.4,0.7-0.8,1.4-0.8c1.5,0,1.8,1,1.8,2.3v2.7H10V8.4c0-0.6,0-1.3-0.8-1.3
		c-0.8,0-0.9,0.6-0.9,1.3v2.4H6.8V5.9z"/>
</g>
</svg>
