<?xml version="1.0" encoding="utf-8"?>
<!-- Generator: Adobe Illustrator 23.0.2, SVG Export Plug-In . SVG Version: 6.00 Build 0)  -->
<svg version="1.1" id="Capa_1" xmlns="http://www.w3.org/2000/svg" xmlns:xlink="http://www.w3.org/1999/xlink" x="0px" y="0px"
	 viewBox="0 0 15 15" style="enable-background:new 0 0 15 15;" xml:space="preserve">
<style type="text/css">
	.st0{fill:#FFFFFF;}
	.st1{fill-rule:evenodd;clip-rule:evenodd;fill:#1E4FAD;}
</style>
<g>
	<circle class="st0" cx="7.5" cy="7.5" r="7.5"/>
	<path class="st1" d="M8.5,4.7c0.3,0,0.5,0,0.8,0c0,0,0.1,0,0.1,0V3.3c-0.1,0-0.3,0-0.5,0c-0.3,0-0.6,0-0.8,0
		c-0.4,0-0.8,0.1-1.2,0.4C6.5,3.9,6.3,4.3,6.2,4.8c0,0.2,0,0.4,0,0.6c0,0.3,0,0.6,0,1v0.1H4.8v1.6h1.3v4h1.6v-4h1.3
		c0.1-0.5,0.1-1,0.2-1.6c-0.1,0-0.2,0-0.3,0c-0.4,0-1.3,0-1.3,0s0-0.8,0-1.1C7.8,4.9,8.1,4.7,8.5,4.7z"/>
</g>
</svg>
