<?xml version="1.0" encoding="utf-8"?>
<!-- Generator: Adobe Illustrator 23.0.2, SVG Export Plug-In . SVG Version: 6.00 Build 0)  -->
<svg version="1.1" id="Capa_1" xmlns="http://www.w3.org/2000/svg" xmlns:xlink="http://www.w3.org/1999/xlink" x="0px" y="0px"
	 viewBox="0 0 15 15" style="enable-background:new 0 0 15 15;" xml:space="preserve">
<style type="text/css">
	.st0{fill:#1BA5D4;}
	.st1{fill-rule:evenodd;clip-rule:evenodd;fill:#FFFFFF;}
</style>
<g>
	<circle class="st0" cx="7.5" cy="7.5" r="7.5"/>
	<path class="st1" d="M6.1,9.7C5.2,9.7,4.6,9,4.5,8.5c0.3,0,0.5,0,0.8,0c0,0,0,0,0,0C4.8,8.3,4.4,8.1,4.1,7.7C4,7.4,3.9,7.1,3.9,6.7
		c0.2,0.1,0.5,0.2,0.8,0.2C4.3,6.7,4,6.3,3.9,5.9C3.8,5.4,3.9,5,4.1,4.6c1,1.1,2.2,1.7,3.6,1.8c0-0.1,0-0.1,0-0.2
		c0-0.4,0-0.8,0.3-1.2c0.3-0.4,0.7-0.7,1.2-0.8c0.6-0.1,1.1,0.1,1.5,0.5c0,0,0.1,0,0.1,0c0.4-0.1,0.7-0.2,1-0.4c0,0,0,0,0,0
		c0,0,0,0,0,0c-0.1,0.4-0.4,0.7-0.8,1c0.3,0,0.7-0.1,1-0.3c0,0,0,0,0,0C12,5.2,12,5.3,11.9,5.4c-0.2,0.2-0.4,0.4-0.6,0.6
		c0,0,0,0,0,0.1c0,0.3,0,0.5,0,0.8c-0.1,0.5-0.2,1.1-0.5,1.6c-0.2,0.5-0.6,1-1,1.4c-0.7,0.7-1.5,1.1-2.4,1.4c-0.3,0.1-0.7,0.1-1,0.1
		c-1,0-2-0.2-2.8-0.8c0,0,0,0,0,0c0.6,0.1,1.2,0,1.8-0.2C5.6,10.1,5.9,9.9,6.1,9.7z"/>
</g>
</svg>
